HIERARCHY
ROOT Hips
{
    OFFSET 0.000000 0.000000 0.000000
    CHANNELS 6 Xposition Yposition Zposition Zrotation Xrotation Yrotation
    JOINT Spine
    {
        OFFSET -0.000000 0.068295 0.000000
        CHANNELS 3 Zrotation Xrotation Yrotation
        JOINT Spine1
        {
            OFFSET -0.000000 0.198479 0.000000
            CHANNELS 3 Zrotation Xrotation Yrotation
            JOINT Neck
            {
                OFFSET -0.000000 0.215136 0.000000
                CHANNELS 3 Zrotation Xrotation Yrotation
                JOINT Head
                {
                    OFFSET -0.000000 0.090366 0.016657
                    CHANNELS 3 Zrotation Xrotation Yrotation
                    End Site
                    {
                        OFFSET -0.000000 0.166573 0.000000
                    }
                }
            }
            JOINT LeftShoulder
            {
                OFFSET 0.033522 0.175145 -0.001055
                CHANNELS 3 Zrotation Xrotation Yrotation
                JOINT LeftArm
                {
                    OFFSET 0.121214 0.000000 0.000000
                    CHANNELS 3 Zrotation Xrotation Yrotation
                    JOINT LeftForeArm
                    {
                        OFFSET 0.261115 0.000000 0.000000
                        CHANNELS 3 Zrotation Xrotation Yrotation
                        JOINT LeftHand
                        {
                            OFFSET 0.230096 0.000000 0.000000
                            CHANNELS 3 Zrotation Xrotation Yrotation
                            End Site
                            {
                                OFFSET 0.000000 -0.124930 0.000000
                            }
                        }
                    }
                }
            }
            JOINT RightShoulder
            {
                OFFSET -0.033103 0.175145 -0.001055
                CHANNELS 3 Zrotation Xrotation Yrotation
                JOINT RightArm
                {
                    OFFSET -0.121214 0.000000 0.000000
                    CHANNELS 3 Zrotation Xrotation Yrotation
                    JOINT RightForeArm
                    {
                        OFFSET -0.261115 0.000000 0.000000
                        CHANNELS 3 Zrotation Xrotation Yrotation
                        JOINT RightHand
                        {
                            OFFSET -0.230096 0.000000 0.000000
                            CHANNELS 3 Zrotation Xrotation Yrotation
                            End Site
                            {
                                OFFSET -0.000000 -0.124930 0.000000
                            }
                        }
                    }
                }
            }
        }
    }
    JOINT LeftUpLeg
    {
        OFFSET 0.083287 0.000000 0.000000
        CHANNELS 3 Zrotation Xrotation Yrotation
        JOINT LeftLeg
        {
            OFFSET -0.000000 -0.281128 0.000000
            CHANNELS 3 Zrotation Xrotation Yrotation
            JOINT LeftFoot
            {
                OFFSET -0.000000 -0.491911 0.000000
                CHANNELS 3 Zrotation Xrotation Yrotation
                JOINT LeftToeBase
                {
                    OFFSET -0.000000 -0.054136 0.124930
                    CHANNELS 3 Zrotation Xrotation Yrotation
                    End Site
                    {
                        OFFSET -0.000000 0.000000 0.033315
                    }
                }
            }
        }
    }
    JOINT RightUpLeg
    {
        OFFSET -0.083287 0.000000 0.000000
        CHANNELS 3 Zrotation Xrotation Yrotation
        JOINT RightLeg
        {
            OFFSET -0.000000 -0.281128 0.000000
            CHANNELS 3 Zrotation Xrotation Yrotation
            JOINT RightFoot
            {
                OFFSET -0.000000 -0.491911 0.000000
                CHANNELS 3 Zrotation Xrotation Yrotation
                JOINT RightToeBase
                {
                    OFFSET -0.000000 -0.054136 0.124930
                    CHANNELS 3 Zrotation Xrotation Yrotation
                    End Site
                    {
                        OFFSET -0.000000 0.000000 0.033315
                    }
                }
            }
        }
    }
}
MOTION
Frames:    4
Frame Time:    0.010000
0.067290    0.827121    0.051358    -3.685063    -0.568864    -97.262909    -0.228796    3.337466    1.507300    -4.462128    -4.397725    0.328923    1.955057    -1.211599    -0.716403    -6.451979    -3.257098    0.151467    15.038398    0.006047    -2.748405    -16.652817    -0.699681    -2.276216    2.645451    2.232367    -1.597761    99.168404    -3.557253    -1.983931    -13.447298    -3.307310    4.635627    15.592788    2.060159    -2.997587    -0.288107    -2.841200    -4.656920    -97.004684    -0.048072    -2.855848    -4.765210    14.276940    -1.156621    0.413827    -1.895482    4.030994    4.152692    3.956597    58.581322    0.000000    0.000000    0.000000    2.373867    11.642346    -6.523354    -0.977914    0.123177    -6.133999    -3.018018    -11.506206    -37.908928    0.000000    0.000000    0.000000    
0.067075    0.827119    0.051166    -3.703632    -0.563967    -97.259109    -0.231083    3.331884    1.499826    -4.456097    -4.399168    0.326544    1.949274    -1.150848    -0.724152    -6.478935    -3.264555    0.146017    15.025672    0.013655    -2.766004    -16.621399    -0.648109    -2.285499    2.666906    2.164604    -1.601488    99.127968    -3.593980    -1.914889    -13.458133    -3.319010    4.647977    15.608011    2.139201    -2.968780    -0.296333    -2.852026    -4.745368    -96.656029    -0.529093    -2.895071    -4.767001    14.314955    -1.166827    0.438582    -1.900223    4.102894    4.150265    3.963523    58.528606    0.000000    0.000000    0.000000    2.376133    11.684828    -6.500790    -0.954360    0.118592    -6.132807    -3.040473    -11.497485    -37.952492    0.000000    0.000000    0.000000    
0.066832    0.827102    0.050947    -3.725843    -0.559982    -97.264137    -0.238961    3.318521    1.498856    -4.456950    -4.383089    0.326725    1.973478    -1.114368    -0.712093    -6.512605    -3.250182    0.166339    15.037242    -0.003809    -2.773493    -16.607689    -0.604018    -2.293868    2.679795    2.173320    -1.606479    99.400383    -3.584912    -1.916047    -13.456421    -3.325880    4.654858    15.603944    2.146392    -2.952983    -0.124341    -2.620430    -4.839321    -97.514877    0.123623    -2.617563    -4.750531    14.355446    -1.178836    0.434965    -1.892549    4.054301    4.167404    3.989782    58.596924    0.000000    0.000000    0.000000    2.388501    11.722237    -6.495461    -0.951943    0.125860    -6.142012    -3.036284    -11.483677    -37.940475    0.000000    0.000000    0.000000    
0.066642    0.827109    0.050758    -3.743904    -0.556928    -97.270432    -0.247022    3.323750    1.495315    -4.448801    -4.396878    0.325231    1.971459    -1.073497    -0.708419    -6.515889    -3.240657    0.171535    15.036074    -0.011758    -2.779772    -16.592154    -0.548725    -2.302008    2.679962    2.171012    -1.581791    99.168961    -3.592942    -1.919794    -13.458515    -3.337050    4.663447    15.600068    2.200669    -2.931597    -0.118135    -2.559435    -4.865656    -97.214745    -0.284764    -2.582391    -4.752297    14.391212    -1.168511    0.452223    -1.897561    4.083502    4.142244    4.000742    58.575294    0.000000    0.000000    0.000000    2.402828    11.755806    -6.510701    -0.942430    0.140883    -6.155281    -3.068802    -11.397600    -37.991882    0.000000    0.000000    0.000000    
